<mxfile host="app.diagrams.net" agent="Mozilla/5.0 (X11; Linux x86_64; rv:131.0) Gecko/20100101 Firefox/131.0" version="24.7.17">
  <diagram name="Page-1" id="sATsitDmDHVhfoRcJ34a">
    <mxGraphModel dx="1202" dy="527" grid="1" gridSize="10" guides="1" tooltips="1" connect="1" arrows="1" fold="1" page="1" pageScale="1" pageWidth="850" pageHeight="1100" math="0" shadow="0">
      <root>
        <mxCell id="0" />
        <mxCell id="1" parent="0" />
        <mxCell id="i_vNW87tbyIOGhUHI1Zn-7" style="edgeStyle=orthogonalEdgeStyle;rounded=0;orthogonalLoop=1;jettySize=auto;html=1;entryX=0.5;entryY=0;entryDx=0;entryDy=0;" edge="1" parent="1" source="i_vNW87tbyIOGhUHI1Zn-1" target="i_vNW87tbyIOGhUHI1Zn-6">
          <mxGeometry relative="1" as="geometry" />
        </mxCell>
        <mxCell id="i_vNW87tbyIOGhUHI1Zn-1" value="Start" style="ellipse;whiteSpace=wrap;html=1;" vertex="1" parent="1">
          <mxGeometry x="380" y="260" width="80" height="60" as="geometry" />
        </mxCell>
        <mxCell id="i_vNW87tbyIOGhUHI1Zn-4" style="edgeStyle=orthogonalEdgeStyle;rounded=0;orthogonalLoop=1;jettySize=auto;html=1;entryX=0.5;entryY=0;entryDx=0;entryDy=0;" edge="1" parent="1" source="i_vNW87tbyIOGhUHI1Zn-2" target="i_vNW87tbyIOGhUHI1Zn-3">
          <mxGeometry relative="1" as="geometry" />
        </mxCell>
        <mxCell id="i_vNW87tbyIOGhUHI1Zn-15" style="edgeStyle=orthogonalEdgeStyle;rounded=0;orthogonalLoop=1;jettySize=auto;html=1;entryX=0.5;entryY=0;entryDx=0;entryDy=0;" edge="1" parent="1" source="i_vNW87tbyIOGhUHI1Zn-2" target="i_vNW87tbyIOGhUHI1Zn-16">
          <mxGeometry relative="1" as="geometry">
            <mxPoint x="630.0000000000002" y="420" as="targetPoint" />
          </mxGeometry>
        </mxCell>
        <mxCell id="i_vNW87tbyIOGhUHI1Zn-2" value="counter &amp;lt;= 10" style="rhombus;whiteSpace=wrap;html=1;" vertex="1" parent="1">
          <mxGeometry x="380" y="380" width="80" height="80" as="geometry" />
        </mxCell>
        <mxCell id="i_vNW87tbyIOGhUHI1Zn-9" style="edgeStyle=orthogonalEdgeStyle;rounded=0;orthogonalLoop=1;jettySize=auto;html=1;entryX=0;entryY=0.5;entryDx=0;entryDy=0;exitX=0.5;exitY=1;exitDx=0;exitDy=0;" edge="1" parent="1" source="i_vNW87tbyIOGhUHI1Zn-12" target="i_vNW87tbyIOGhUHI1Zn-6">
          <mxGeometry relative="1" as="geometry">
            <mxPoint x="330" y="710" as="sourcePoint" />
            <Array as="points">
              <mxPoint x="406" y="710" />
              <mxPoint x="300" y="710" />
              <mxPoint x="300" y="365" />
            </Array>
          </mxGeometry>
        </mxCell>
        <mxCell id="i_vNW87tbyIOGhUHI1Zn-14" value="" style="edgeStyle=orthogonalEdgeStyle;rounded=0;orthogonalLoop=1;jettySize=auto;html=1;" edge="1" parent="1" source="i_vNW87tbyIOGhUHI1Zn-3" target="i_vNW87tbyIOGhUHI1Zn-12">
          <mxGeometry relative="1" as="geometry" />
        </mxCell>
        <mxCell id="i_vNW87tbyIOGhUHI1Zn-3" value="counter" style="shape=parallelogram;perimeter=parallelogramPerimeter;whiteSpace=wrap;html=1;fixedSize=1;" vertex="1" parent="1">
          <mxGeometry x="360" y="540" width="120" height="60" as="geometry" />
        </mxCell>
        <mxCell id="i_vNW87tbyIOGhUHI1Zn-5" value="O" style="text;html=1;align=center;verticalAlign=middle;resizable=0;points=[];autosize=1;strokeColor=none;fillColor=none;" vertex="1" parent="1">
          <mxGeometry x="436" y="508" width="30" height="30" as="geometry" />
        </mxCell>
        <mxCell id="i_vNW87tbyIOGhUHI1Zn-8" style="edgeStyle=orthogonalEdgeStyle;rounded=0;orthogonalLoop=1;jettySize=auto;html=1;entryX=0.5;entryY=0;entryDx=0;entryDy=0;" edge="1" parent="1" source="i_vNW87tbyIOGhUHI1Zn-6" target="i_vNW87tbyIOGhUHI1Zn-2">
          <mxGeometry relative="1" as="geometry" />
        </mxCell>
        <mxCell id="i_vNW87tbyIOGhUHI1Zn-6" value="" style="ellipse;whiteSpace=wrap;html=1;" vertex="1" parent="1">
          <mxGeometry x="415" y="360" width="10" height="10" as="geometry" />
        </mxCell>
        <mxCell id="i_vNW87tbyIOGhUHI1Zn-12" value="counter++" style="shape=parallelogram;perimeter=parallelogramPerimeter;whiteSpace=wrap;html=1;fixedSize=1;" vertex="1" parent="1">
          <mxGeometry x="346" y="630" width="120" height="60" as="geometry" />
        </mxCell>
        <mxCell id="i_vNW87tbyIOGhUHI1Zn-16" value="End" style="ellipse;whiteSpace=wrap;html=1;" vertex="1" parent="1">
          <mxGeometry x="590" y="448" width="80" height="60" as="geometry" />
        </mxCell>
      </root>
    </mxGraphModel>
  </diagram>
</mxfile>
